<svg preserveAspectRatio="none" width="100%" height="100%" overflow="visible" style="display: block;" viewBox="0 0 42.8151 19.2477" fill="none" xmlns="http://www.w3.org/2000/svg">
<g id="Group 11">
<path id="Combined Shape" fill-rule="evenodd" clip-rule="evenodd" d="M36.4384 6.4159H42.5941C42.7161 6.4159 42.8151 6.51487 42.8151 6.63696V12.6107C42.8151 12.7328 42.7161 12.8318 42.5941 12.8318H36.4384V19.0267C36.4384 19.1487 36.3394 19.2477 36.2173 19.2477H30.2827C30.1606 19.2477 30.0617 19.1487 30.0617 19.0267V12.8318H23.906C23.7839 12.8318 23.685 12.7328 23.685 12.6107V6.63696C23.685 6.51487 23.7839 6.4159 23.906 6.4159H30.0617V0.221058C30.0617 0.0989712 30.1606 0 30.2827 0H36.2173C36.3394 0 36.4384 0.0989712 36.4384 0.221058V6.4159ZM12.7534 6.4159H18.9091C19.0312 6.4159 19.1302 6.51487 19.1302 6.63696V12.6107C19.1302 12.7328 19.0312 12.8318 18.9091 12.8318H12.7534V19.0267C12.7534 19.1487 12.6545 19.2477 12.5324 19.2477H6.59778C6.47569 19.2477 6.37672 19.1487 6.37672 19.0267V12.8318H0.221059C0.0989723 12.8318 1.19209e-06 12.7328 1.19209e-06 12.6107V6.63696C1.19209e-06 6.51487 0.0989723 6.4159 0.221059 6.4159H6.37672V0.221058C6.37672 0.0989712 6.47569 0 6.59778 0H12.5324C12.6545 0 12.7534 0.0989712 12.7534 0.221058V6.4159Z" fill="var(--fill-0, black)"/>
</g>
</svg>
